<svg width="741" height="545" viewBox="0 0 741 545" fill="none" xmlns="http://www.w3.org/2000/svg">
<path fill-rule="evenodd" clip-rule="evenodd" d="M239.931 9.92261L249.567 29.3365L456.097 445.505V272.5V245.37L474.862 264.958L598.548 394.075L722.235 264.958L741 245.37V272.5V534.1V545H730.103H196.147V523.2H719.206V299.63L606.417 417.372L598.548 425.585L590.681 417.372L477.892 299.63L479.5 489.5L479.582 492.827L477.892 493.666L474.702 495.25L464.94 500.096L460.061 502.519L239.68 58.4434L164.194 206.658C230.378 247.843 238.586 317.698 233.917 349.22L232.539 358.523H223.138H89.9303L19.5795 502.46L14.6847 500.067L4.89487 495.28L0 492.886L73.3383 342.835L76.3259 336.723H83.1281H213.17C214.229 306.277 202.168 251.496 144.633 220.507L135.254 215.455L140.089 205.962L230.096 29.2352L239.931 9.92261Z" fill="white"/>
</svg>
