<svg width="68" height="50" viewBox="0 0 68 50" fill="none" xmlns="http://www.w3.org/2000/svg">
<path fill-rule="evenodd" clip-rule="evenodd" d="M22.018 0.910339L22.9022 2.69143L41.8551 40.872V25V22.511L43.5771 24.3081L54.9275 36.1537L66.278 24.3081L68 22.511V25V49V50H67H18V48H66V27.489L55.6496 38.291L54.9275 39.0445L54.2055 38.291L43.8551 27.489V44.9009L44.0102 45.2135L43.8551 45.2905V45.3212H43.7932L43.5624 45.4358L42.6666 45.8804L42.2188 46.1027L21.9949 5.36179L15.0677 18.9595C21.1413 22.7379 21.8945 29.1466 21.4661 32.0385L21.3396 32.892H20.4769H8.25271L1.79677 46.0973L1.34758 45.8777L0.449192 45.4385L0 45.2189L6.7301 31.4528L7.00427 30.892H7.62849H19.5622C19.6593 28.0988 18.5525 23.073 13.2727 20.23L12.412 19.7665L12.8557 18.8956L21.1154 2.68214L22.018 0.910339Z" fill="white"/>
</svg>
